<?xml version="1.0" encoding="UTF-8" standalone="no"?>
<!DOCTYPE svg PUBLIC "-//W3C//DTD SVG 1.1//EN"
 "http://www.w3.org/Graphics/SVG/1.1/DTD/svg11.dtd">
<!-- Generated by graphviz version 2.38.0 (20140413.2041)
 -->
<!-- Title: controllers_diagram Pages: 1 -->
<svg width="746pt" height="645pt"
 viewBox="0.00 0.00 745.60 645.00" xmlns="http://www.w3.org/2000/svg" xmlns:xlink="http://www.w3.org/1999/xlink">
<g id="graph0" class="graph" transform="scale(1 1) rotate(0) translate(275.935 369.5)">
<title>controllers_diagram</title>
<polygon fill="none" stroke="none" points="-275.935,275.5 -275.935,-369.5 469.662,-369.5 469.662,275.5 -275.935,275.5"/>
<!-- _diagram_info -->
<g id="node1" class="node"><title>_diagram_info</title>
<text text-anchor="start" x="-144.688" y="93.9" font-family="Times,serif" font-size="13.00">Controllers diagram</text>
<text text-anchor="start" x="-144.688" y="106.9" font-family="Times,serif" font-size="13.00">Date: Dec 22 2016 &#45; 20:41</text>
<text text-anchor="start" x="-144.688" y="119.9" font-family="Times,serif" font-size="13.00">Migration version: 20161215235210</text>
<text text-anchor="start" x="-144.688" y="132.9" font-family="Times,serif" font-size="13.00">Generated by RailRoady 1.5.2</text>
<text text-anchor="start" x="-144.688" y="145.9" font-family="Times,serif" font-size="13.00">http://railroady.prestonlee.com</text>
</g>
<!-- ApplicationController -->
<g id="node2" class="node"><title>ApplicationController</title>
<path fill="none" stroke="black" d="M216.034,-205C216.034,-205 389.966,-205 389.966,-205 395.966,-205 401.966,-211 401.966,-217 401.966,-217 401.966,-283 401.966,-283 401.966,-289 395.966,-295 389.966,-295 389.966,-295 216.034,-295 216.034,-295 210.034,-295 204.034,-289 204.034,-283 204.034,-283 204.034,-217 204.034,-217 204.034,-211 210.034,-205 216.034,-205"/>
<text text-anchor="middle" x="303" y="-279.8" font-family="Times,serif" font-size="14.00">ApplicationController</text>
<polyline fill="none" stroke="black" points="204.034,-273 401.966,-273 "/>
<polyline fill="none" stroke="black" points="204.034,-249 401.966,-249 "/>
<text text-anchor="start" x="212.034" y="-233.8" font-family="Times,serif" font-size="14.00">configure_permitted_parameters</text>
<polyline fill="none" stroke="black" points="204.034,-227 401.966,-227 "/>
<text text-anchor="start" x="212.034" y="-211.8" font-family="Times,serif" font-size="14.00">_layout</text>
</g>
<!-- ProductsController -->
<g id="node3" class="node"><title>ProductsController</title>
<path fill="none" stroke="black" d="M-73.2725,-86C-73.2725,-86 25.2725,-86 25.2725,-86 31.2725,-86 37.2725,-92 37.2725,-98 37.2725,-98 37.2725,-276 37.2725,-276 37.2725,-282 31.2725,-288 25.2725,-288 25.2725,-288 -73.2725,-288 -73.2725,-288 -79.2725,-288 -85.2725,-282 -85.2725,-276 -85.2725,-276 -85.2725,-98 -85.2725,-98 -85.2725,-92 -79.2725,-86 -73.2725,-86"/>
<text text-anchor="middle" x="-24" y="-272.8" font-family="Times,serif" font-size="14.00">ProductsController</text>
<polyline fill="none" stroke="black" points="-85.2725,-266 37.2725,-266 "/>
<text text-anchor="start" x="-77.2725" y="-250.8" font-family="Times,serif" font-size="14.00">index</text>
<text text-anchor="start" x="-77.2725" y="-236.8" font-family="Times,serif" font-size="14.00">destroy</text>
<text text-anchor="start" x="-77.2725" y="-222.8" font-family="Times,serif" font-size="14.00">edit</text>
<text text-anchor="start" x="-77.2725" y="-208.8" font-family="Times,serif" font-size="14.00">create</text>
<text text-anchor="start" x="-77.2725" y="-194.8" font-family="Times,serif" font-size="14.00">new</text>
<text text-anchor="start" x="-77.2725" y="-180.8" font-family="Times,serif" font-size="14.00">show</text>
<text text-anchor="start" x="-77.2725" y="-166.8" font-family="Times,serif" font-size="14.00">update</text>
<polyline fill="none" stroke="black" points="-85.2725,-160 37.2725,-160 "/>
<polyline fill="none" stroke="black" points="-85.2725,-136 37.2725,-136 "/>
<text text-anchor="start" x="-77.2725" y="-120.8" font-family="Times,serif" font-size="14.00">_layout</text>
<text text-anchor="start" x="-77.2725" y="-106.8" font-family="Times,serif" font-size="14.00">product_params</text>
<text text-anchor="start" x="-77.2725" y="-92.8" font-family="Times,serif" font-size="14.00">set_product</text>
</g>
<!-- Users::ConfirmationsController -->
<g id="node4" class="node"><title>Users::ConfirmationsController</title>
<path fill="none" stroke="black" d="M284.338,271C284.338,271 453.662,271 453.662,271 459.662,271 465.662,265 465.662,259 465.662,259 465.662,191 465.662,191 465.662,185 459.662,179 453.662,179 453.662,179 284.338,179 284.338,179 278.338,179 272.338,185 272.338,191 272.338,191 272.338,259 272.338,259 272.338,265 278.338,271 284.338,271"/>
<text text-anchor="middle" x="369" y="194.2" font-family="Times,serif" font-size="14.00">Users::ConfirmationsController</text>
<polyline fill="none" stroke="black" points="272.338,201 465.662,201 "/>
<polyline fill="none" stroke="black" points="272.338,225 465.662,225 "/>
<polyline fill="none" stroke="black" points="272.338,249 465.662,249 "/>
<text text-anchor="start" x="280.338" y="264.2" font-family="Times,serif" font-size="14.00">_layout</text>
</g>
<!-- Users::OmniauthCallbacksController -->
<g id="node5" class="node"><title>Users::OmniauthCallbacksController</title>
<path fill="none" stroke="black" d="M-107.204,50C-107.204,50 93.2036,50 93.2036,50 99.2036,50 105.204,44 105.204,38 105.204,38 105.204,-30 105.204,-30 105.204,-36 99.2036,-42 93.2036,-42 93.2036,-42 -107.204,-42 -107.204,-42 -113.204,-42 -119.204,-36 -119.204,-30 -119.204,-30 -119.204,38 -119.204,38 -119.204,44 -113.204,50 -107.204,50"/>
<text text-anchor="middle" x="-7" y="-26.8" font-family="Times,serif" font-size="14.00">Users::OmniauthCallbacksController</text>
<polyline fill="none" stroke="black" points="-119.204,-20 105.204,-20 "/>
<polyline fill="none" stroke="black" points="-119.204,4 105.204,4 "/>
<polyline fill="none" stroke="black" points="-119.204,28 105.204,28 "/>
<text text-anchor="start" x="-111.204" y="43.2" font-family="Times,serif" font-size="14.00">_layout</text>
</g>
<!-- Users::PasswordsController -->
<g id="node6" class="node"><title>Users::PasswordsController</title>
<path fill="none" stroke="black" d="M283.838,152C283.838,152 432.162,152 432.162,152 438.162,152 444.162,146 444.162,140 444.162,140 444.162,72 444.162,72 444.162,66 438.162,60 432.162,60 432.162,60 283.838,60 283.838,60 277.838,60 271.838,66 271.838,72 271.838,72 271.838,140 271.838,140 271.838,146 277.838,152 283.838,152"/>
<text text-anchor="middle" x="358" y="75.2" font-family="Times,serif" font-size="14.00">Users::PasswordsController</text>
<polyline fill="none" stroke="black" points="271.838,82 444.162,82 "/>
<polyline fill="none" stroke="black" points="271.838,106 444.162,106 "/>
<polyline fill="none" stroke="black" points="271.838,130 444.162,130 "/>
<text text-anchor="start" x="279.838" y="145.2" font-family="Times,serif" font-size="14.00">_layout</text>
</g>
<!-- Users::RegistrationsController -->
<g id="node7" class="node"><title>Users::RegistrationsController</title>
<path fill="none" stroke="black" d="M80.4238,-69C80.4238,-69 267.576,-69 267.576,-69 273.576,-69 279.576,-75 279.576,-81 279.576,-81 279.576,-161 279.576,-161 279.576,-167 273.576,-173 267.576,-173 267.576,-173 80.4238,-173 80.4238,-173 74.4238,-173 68.4238,-167 68.4238,-161 68.4238,-161 68.4238,-81 68.4238,-81 68.4238,-75 74.4238,-69 80.4238,-69"/>
<text text-anchor="middle" x="174" y="-157.8" font-family="Times,serif" font-size="14.00">Users::RegistrationsController</text>
<polyline fill="none" stroke="black" points="68.4238,-151 279.576,-151 "/>
<text text-anchor="start" x="76.4238" y="-135.8" font-family="Times,serif" font-size="14.00">configure_account_update_params</text>
<text text-anchor="start" x="76.4238" y="-121.8" font-family="Times,serif" font-size="14.00">configure_sign_up_params</text>
<polyline fill="none" stroke="black" points="68.4238,-115 279.576,-115 "/>
<polyline fill="none" stroke="black" points="68.4238,-91 279.576,-91 "/>
<text text-anchor="start" x="76.4238" y="-75.8" font-family="Times,serif" font-size="14.00">_layout</text>
</g>
<!-- Users::SessionsController -->
<g id="node8" class="node"><title>Users::SessionsController</title>
<path fill="none" stroke="black" d="M-259.721,-273C-259.721,-273 -122.279,-273 -122.279,-273 -116.279,-273 -110.279,-279 -110.279,-285 -110.279,-285 -110.279,-353 -110.279,-353 -110.279,-359 -116.279,-365 -122.279,-365 -122.279,-365 -259.721,-365 -259.721,-365 -265.721,-365 -271.721,-359 -271.721,-353 -271.721,-353 -271.721,-285 -271.721,-285 -271.721,-279 -265.721,-273 -259.721,-273"/>
<text text-anchor="middle" x="-191" y="-349.8" font-family="Times,serif" font-size="14.00">Users::SessionsController</text>
<polyline fill="none" stroke="black" points="-271.721,-343 -110.279,-343 "/>
<polyline fill="none" stroke="black" points="-271.721,-319 -110.279,-319 "/>
<polyline fill="none" stroke="black" points="-271.721,-295 -110.279,-295 "/>
<text text-anchor="start" x="-263.721" y="-279.8" font-family="Times,serif" font-size="14.00">_layout</text>
</g>
<!-- Users::UnlocksController -->
<g id="node9" class="node"><title>Users::UnlocksController</title>
<path fill="none" stroke="black" d="M-259.935,-154C-259.935,-154 -124.065,-154 -124.065,-154 -118.065,-154 -112.065,-160 -112.065,-166 -112.065,-166 -112.065,-234 -112.065,-234 -112.065,-240 -118.065,-246 -124.065,-246 -124.065,-246 -259.935,-246 -259.935,-246 -265.935,-246 -271.935,-240 -271.935,-234 -271.935,-234 -271.935,-166 -271.935,-166 -271.935,-160 -265.935,-154 -259.935,-154"/>
<text text-anchor="middle" x="-192" y="-230.8" font-family="Times,serif" font-size="14.00">Users::UnlocksController</text>
<polyline fill="none" stroke="black" points="-271.935,-224 -112.065,-224 "/>
<polyline fill="none" stroke="black" points="-271.935,-200 -112.065,-200 "/>
<polyline fill="none" stroke="black" points="-271.935,-176 -112.065,-176 "/>
<text text-anchor="start" x="-263.935" y="-160.8" font-family="Times,serif" font-size="14.00">_layout</text>
</g>
<!-- UsersController -->
<g id="node10" class="node"><title>UsersController</title>
<path fill="none" stroke="black" d="M148.286,169C148.286,169 229.714,169 229.714,169 235.714,169 241.714,163 241.714,157 241.714,157 241.714,-21 241.714,-21 241.714,-27 235.714,-33 229.714,-33 229.714,-33 148.286,-33 148.286,-33 142.286,-33 136.286,-27 136.286,-21 136.286,-21 136.286,157 136.286,157 136.286,163 142.286,169 148.286,169"/>
<text text-anchor="middle" x="189" y="-17.8" font-family="Times,serif" font-size="14.00">UsersController</text>
<polyline fill="none" stroke="black" points="136.286,-11 241.714,-11 "/>
<text text-anchor="start" x="144.286" y="4.2" font-family="Times,serif" font-size="14.00">index</text>
<text text-anchor="start" x="144.286" y="18.2" font-family="Times,serif" font-size="14.00">destroy</text>
<text text-anchor="start" x="144.286" y="32.2" font-family="Times,serif" font-size="14.00">edit</text>
<text text-anchor="start" x="144.286" y="46.2" font-family="Times,serif" font-size="14.00">create</text>
<text text-anchor="start" x="144.286" y="60.2" font-family="Times,serif" font-size="14.00">new</text>
<text text-anchor="start" x="144.286" y="74.2" font-family="Times,serif" font-size="14.00">show</text>
<text text-anchor="start" x="144.286" y="88.2" font-family="Times,serif" font-size="14.00">update</text>
<polyline fill="none" stroke="black" points="136.286,95 241.714,95 "/>
<polyline fill="none" stroke="black" points="136.286,119 241.714,119 "/>
<text text-anchor="start" x="144.286" y="134.2" font-family="Times,serif" font-size="14.00">_layout</text>
<text text-anchor="start" x="144.286" y="148.2" font-family="Times,serif" font-size="14.00">set_user</text>
<text text-anchor="start" x="144.286" y="162.2" font-family="Times,serif" font-size="14.00">user_params</text>
</g>
</g>
</svg>
