<?xml version="1.0" encoding="UTF-8" standalone="no"?>
<!DOCTYPE svg PUBLIC "-//W3C//DTD SVG 1.1//EN"
 "http://www.w3.org/Graphics/SVG/1.1/DTD/svg11.dtd">
<!-- Generated by graphviz version 2.38.0 (20140413.2041)
 -->
<!-- Title: controllers_diagram Pages: 1 -->
<svg width="596pt" height="613pt"
 viewBox="0.00 0.00 595.76 613.00" xmlns="http://www.w3.org/2000/svg" xmlns:xlink="http://www.w3.org/1999/xlink">
<g id="graph0" class="graph" transform="scale(1 1) rotate(0) translate(164.212 353.5)">
<title>controllers_diagram</title>
<polygon fill="none" stroke="none" points="-164.212,259.5 -164.212,-353.5 431.545,-353.5 431.545,259.5 -164.212,259.5"/>
<!-- _diagram_info -->
<g id="node1" class="node"><title>_diagram_info</title>
<text text-anchor="start" x="-152.212" y="100.9" font-family="Times,serif" font-size="13.00">Controllers diagram</text>
<text text-anchor="start" x="-152.212" y="113.9" font-family="Times,serif" font-size="13.00">Date: Nov 24 2016 &#45; 19:33</text>
<text text-anchor="start" x="-152.212" y="126.9" font-family="Times,serif" font-size="13.00">Migration version: 20161119000357</text>
<text text-anchor="start" x="-152.212" y="139.9" font-family="Times,serif" font-size="13.00">Generated by RailRoady 1.5.2</text>
<text text-anchor="start" x="-152.212" y="152.9" font-family="Times,serif" font-size="13.00">http://railroady.prestonlee.com</text>
</g>
<!-- ApplicationController -->
<g id="node2" class="node"><title>ApplicationController</title>
<path fill="none" stroke="black" d="M140.034,127C140.034,127 313.966,127 313.966,127 319.966,127 325.966,121 325.966,115 325.966,115 325.966,49 325.966,49 325.966,43 319.966,37 313.966,37 313.966,37 140.034,37 140.034,37 134.034,37 128.034,43 128.034,49 128.034,49 128.034,115 128.034,115 128.034,121 134.034,127 140.034,127"/>
<text text-anchor="middle" x="227" y="52.2" font-family="Times,serif" font-size="14.00">ApplicationController</text>
<polyline fill="none" stroke="black" points="128.034,59 325.966,59 "/>
<polyline fill="none" stroke="black" points="128.034,83 325.966,83 "/>
<text text-anchor="start" x="136.034" y="98.2" font-family="Times,serif" font-size="14.00">configure_permitted_parameters</text>
<polyline fill="none" stroke="black" points="128.034,105 325.966,105 "/>
<text text-anchor="start" x="136.034" y="120.2" font-family="Times,serif" font-size="14.00">_layout</text>
</g>
<!-- ProductsController -->
<g id="node3" class="node"><title>ProductsController</title>
<path fill="none" stroke="black" d="M91.7275,-81C91.7275,-81 190.272,-81 190.272,-81 196.272,-81 202.272,-87 202.272,-93 202.272,-93 202.272,-271 202.272,-271 202.272,-277 196.272,-283 190.272,-283 190.272,-283 91.7275,-283 91.7275,-283 85.7275,-283 79.7275,-277 79.7275,-271 79.7275,-271 79.7275,-93 79.7275,-93 79.7275,-87 85.7275,-81 91.7275,-81"/>
<text text-anchor="middle" x="141" y="-267.8" font-family="Times,serif" font-size="14.00">ProductsController</text>
<polyline fill="none" stroke="black" points="79.7275,-261 202.272,-261 "/>
<text text-anchor="start" x="87.7275" y="-245.8" font-family="Times,serif" font-size="14.00">index</text>
<text text-anchor="start" x="87.7275" y="-231.8" font-family="Times,serif" font-size="14.00">destroy</text>
<text text-anchor="start" x="87.7275" y="-217.8" font-family="Times,serif" font-size="14.00">edit</text>
<text text-anchor="start" x="87.7275" y="-203.8" font-family="Times,serif" font-size="14.00">create</text>
<text text-anchor="start" x="87.7275" y="-189.8" font-family="Times,serif" font-size="14.00">new</text>
<text text-anchor="start" x="87.7275" y="-175.8" font-family="Times,serif" font-size="14.00">show</text>
<text text-anchor="start" x="87.7275" y="-161.8" font-family="Times,serif" font-size="14.00">update</text>
<polyline fill="none" stroke="black" points="79.7275,-155 202.272,-155 "/>
<polyline fill="none" stroke="black" points="79.7275,-131 202.272,-131 "/>
<text text-anchor="start" x="87.7275" y="-115.8" font-family="Times,serif" font-size="14.00">_layout</text>
<text text-anchor="start" x="87.7275" y="-101.8" font-family="Times,serif" font-size="14.00">product_params</text>
<text text-anchor="start" x="87.7275" y="-87.8" font-family="Times,serif" font-size="14.00">set_product</text>
</g>
<!-- Users::ConfirmationsController -->
<g id="node4" class="node"><title>Users::ConfirmationsController</title>
<path fill="none" stroke="black" d="M-131.662,-145C-131.662,-145 37.6621,-145 37.6621,-145 43.6621,-145 49.6621,-151 49.6621,-157 49.6621,-157 49.6621,-225 49.6621,-225 49.6621,-231 43.6621,-237 37.6621,-237 37.6621,-237 -131.662,-237 -131.662,-237 -137.662,-237 -143.662,-231 -143.662,-225 -143.662,-225 -143.662,-157 -143.662,-157 -143.662,-151 -137.662,-145 -131.662,-145"/>
<text text-anchor="middle" x="-47" y="-221.8" font-family="Times,serif" font-size="14.00">Users::ConfirmationsController</text>
<polyline fill="none" stroke="black" points="-143.662,-215 49.6621,-215 "/>
<polyline fill="none" stroke="black" points="-143.662,-191 49.6621,-191 "/>
<polyline fill="none" stroke="black" points="-143.662,-167 49.6621,-167 "/>
<text text-anchor="start" x="-135.662" y="-151.8" font-family="Times,serif" font-size="14.00">_layout</text>
</g>
<!-- Users::OmniauthCallbacksController -->
<g id="node5" class="node"><title>Users::OmniauthCallbacksController</title>
<path fill="none" stroke="black" d="M-116.204,47C-116.204,47 84.2036,47 84.2036,47 90.2036,47 96.2036,41 96.2036,35 96.2036,35 96.2036,-33 96.2036,-33 96.2036,-39 90.2036,-45 84.2036,-45 84.2036,-45 -116.204,-45 -116.204,-45 -122.204,-45 -128.204,-39 -128.204,-33 -128.204,-33 -128.204,35 -128.204,35 -128.204,41 -122.204,47 -116.204,47"/>
<text text-anchor="middle" x="-16" y="-29.8" font-family="Times,serif" font-size="14.00">Users::OmniauthCallbacksController</text>
<polyline fill="none" stroke="black" points="-128.204,-23 96.2036,-23 "/>
<polyline fill="none" stroke="black" points="-128.204,1 96.2036,1 "/>
<polyline fill="none" stroke="black" points="-128.204,25 96.2036,25 "/>
<text text-anchor="start" x="-120.204" y="40.2" font-family="Times,serif" font-size="14.00">_layout</text>
</g>
<!-- Users::PasswordsController -->
<g id="node6" class="node"><title>Users::PasswordsController</title>
<path fill="none" stroke="black" d="M91.8379,255C91.8379,255 240.162,255 240.162,255 246.162,255 252.162,249 252.162,243 252.162,243 252.162,175 252.162,175 252.162,169 246.162,163 240.162,163 240.162,163 91.8379,163 91.8379,163 85.8379,163 79.8379,169 79.8379,175 79.8379,175 79.8379,243 79.8379,243 79.8379,249 85.8379,255 91.8379,255"/>
<text text-anchor="middle" x="166" y="178.2" font-family="Times,serif" font-size="14.00">Users::PasswordsController</text>
<polyline fill="none" stroke="black" points="79.8379,185 252.162,185 "/>
<polyline fill="none" stroke="black" points="79.8379,209 252.162,209 "/>
<polyline fill="none" stroke="black" points="79.8379,233 252.162,233 "/>
<text text-anchor="start" x="87.8379" y="248.2" font-family="Times,serif" font-size="14.00">_layout</text>
</g>
<!-- Users::RegistrationsController -->
<g id="node7" class="node"><title>Users::RegistrationsController</title>
<path fill="none" stroke="black" d="M252.455,-1C252.455,-1 415.545,-1 415.545,-1 421.545,-1 427.545,-7 427.545,-13 427.545,-13 427.545,-79 427.545,-79 427.545,-85 421.545,-91 415.545,-91 415.545,-91 252.455,-91 252.455,-91 246.455,-91 240.455,-85 240.455,-79 240.455,-79 240.455,-13 240.455,-13 240.455,-7 246.455,-1 252.455,-1"/>
<text text-anchor="middle" x="334" y="-75.8" font-family="Times,serif" font-size="14.00">Users::RegistrationsController</text>
<polyline fill="none" stroke="black" points="240.455,-69 427.545,-69 "/>
<text text-anchor="start" x="248.455" y="-53.8" font-family="Times,serif" font-size="14.00">configure_sign_up_params</text>
<polyline fill="none" stroke="black" points="240.455,-47 427.545,-47 "/>
<polyline fill="none" stroke="black" points="240.455,-23 427.545,-23 "/>
<text text-anchor="start" x="248.455" y="-7.8" font-family="Times,serif" font-size="14.00">_layout</text>
</g>
<!-- Users::SessionsController -->
<g id="node8" class="node"><title>Users::SessionsController</title>
<path fill="none" stroke="black" d="M252.279,-129C252.279,-129 389.721,-129 389.721,-129 395.721,-129 401.721,-135 401.721,-141 401.721,-141 401.721,-209 401.721,-209 401.721,-215 395.721,-221 389.721,-221 389.721,-221 252.279,-221 252.279,-221 246.279,-221 240.279,-215 240.279,-209 240.279,-209 240.279,-141 240.279,-141 240.279,-135 246.279,-129 252.279,-129"/>
<text text-anchor="middle" x="321" y="-205.8" font-family="Times,serif" font-size="14.00">Users::SessionsController</text>
<polyline fill="none" stroke="black" points="240.279,-199 401.721,-199 "/>
<polyline fill="none" stroke="black" points="240.279,-175 401.721,-175 "/>
<polyline fill="none" stroke="black" points="240.279,-151 401.721,-151 "/>
<text text-anchor="start" x="248.279" y="-135.8" font-family="Times,serif" font-size="14.00">_layout</text>
</g>
<!-- Users::UnlocksController -->
<g id="node9" class="node"><title>Users::UnlocksController</title>
<path fill="none" stroke="black" d="M268.065,-257C268.065,-257 403.935,-257 403.935,-257 409.935,-257 415.935,-263 415.935,-269 415.935,-269 415.935,-337 415.935,-337 415.935,-343 409.935,-349 403.935,-349 403.935,-349 268.065,-349 268.065,-349 262.065,-349 256.065,-343 256.065,-337 256.065,-337 256.065,-269 256.065,-269 256.065,-263 262.065,-257 268.065,-257"/>
<text text-anchor="middle" x="336" y="-333.8" font-family="Times,serif" font-size="14.00">Users::UnlocksController</text>
<polyline fill="none" stroke="black" points="256.065,-327 415.935,-327 "/>
<polyline fill="none" stroke="black" points="256.065,-303 415.935,-303 "/>
<polyline fill="none" stroke="black" points="256.065,-279 415.935,-279 "/>
<text text-anchor="start" x="264.065" y="-263.8" font-family="Times,serif" font-size="14.00">_layout</text>
</g>
</g>
</svg>
