<?xml version="1.0" encoding="UTF-8" standalone="no"?>
<!DOCTYPE svg PUBLIC "-//W3C//DTD SVG 1.1//EN"
 "http://www.w3.org/Graphics/SVG/1.1/DTD/svg11.dtd">
<!-- Generated by graphviz version 2.38.0 (20140413.2041)
 -->
<!-- Title: models_diagram Pages: 1 -->
<svg width="748pt" height="484pt"
 viewBox="0.00 0.00 747.55 484.00" xmlns="http://www.w3.org/2000/svg" xmlns:xlink="http://www.w3.org/1999/xlink">
<g id="graph0" class="graph" transform="scale(1 1) rotate(0) translate(4 480)">
<title>models_diagram</title>
<polygon fill="none" stroke="none" points="-4,4 -4,-480 743.55,-480 743.55,4 -4,4"/>
<!-- _diagram_info -->
<g id="node1" class="node"><title>_diagram_info</title>
<text text-anchor="start" x="8" y="-426.6" font-family="Times,serif" font-size="13.00">Models diagram</text>
<text text-anchor="start" x="8" y="-413.6" font-family="Times,serif" font-size="13.00">Date: Dec 22 2016 &#45; 20:41</text>
<text text-anchor="start" x="8" y="-400.6" font-family="Times,serif" font-size="13.00">Migration version: 20161215235210</text>
<text text-anchor="start" x="8" y="-387.6" font-family="Times,serif" font-size="13.00">Generated by RailRoady 1.5.2</text>
<text text-anchor="start" x="8" y="-374.6" font-family="Times,serif" font-size="13.00">http://railroady.prestonlee.com</text>
</g>
<!-- Commune -->
<g id="node2" class="node"><title>Commune</title>
<path fill="none" stroke="black" d="M237.825,-361.5C237.825,-361.5 461.55,-361.5 461.55,-361.5 467.55,-361.5 473.55,-367.5 473.55,-373.5 473.55,-373.5 473.55,-435.5 473.55,-435.5 473.55,-441.5 467.55,-447.5 461.55,-447.5 461.55,-447.5 237.825,-447.5 237.825,-447.5 231.825,-447.5 225.825,-441.5 225.825,-435.5 225.825,-435.5 225.825,-373.5 225.825,-373.5 225.825,-367.5 231.825,-361.5 237.825,-361.5"/>
<text text-anchor="middle" x="349.688" y="-432.3" font-family="Times,serif" font-size="14.00">Commune</text>
<polyline fill="none" stroke="black" points="225.825,-425.5 473.55,-425.5 "/>
<text text-anchor="start" x="233.825" y="-410.3" font-family="Times,serif" font-size="14.00">id :integer</text>
<text text-anchor="start" x="233.825" y="-396.3" font-family="Times,serif" font-size="14.00">name :character varying</text>
<text text-anchor="start" x="233.825" y="-382.3" font-family="Times,serif" font-size="14.00">created_at :timestamp without time zone</text>
<text text-anchor="start" x="233.825" y="-368.3" font-family="Times,serif" font-size="14.00">updated_at :timestamp without time zone</text>
</g>
<!-- User -->
<g id="node4" class="node"><title>User</title>
<path fill="none" stroke="black" d="M202.053,-0.5C202.053,-0.5 497.323,-0.5 497.323,-0.5 503.323,-0.5 509.323,-6.5 509.323,-12.5 509.323,-12.5 509.323,-284.5 509.323,-284.5 509.323,-290.5 503.323,-296.5 497.323,-296.5 497.323,-296.5 202.053,-296.5 202.053,-296.5 196.053,-296.5 190.053,-290.5 190.053,-284.5 190.053,-284.5 190.053,-12.5 190.053,-12.5 190.053,-6.5 196.053,-0.5 202.053,-0.5"/>
<text text-anchor="middle" x="349.688" y="-281.3" font-family="Times,serif" font-size="14.00">User</text>
<polyline fill="none" stroke="black" points="190.053,-274.5 509.323,-274.5 "/>
<text text-anchor="start" x="198.053" y="-259.3" font-family="Times,serif" font-size="14.00">phone :integer</text>
<text text-anchor="start" x="198.053" y="-245.3" font-family="Times,serif" font-size="14.00">email :character varying</text>
<text text-anchor="start" x="198.053" y="-231.3" font-family="Times,serif" font-size="14.00">encrypted_password :character varying</text>
<text text-anchor="start" x="198.053" y="-217.3" font-family="Times,serif" font-size="14.00">reset_password_token :character varying</text>
<text text-anchor="start" x="198.053" y="-203.3" font-family="Times,serif" font-size="14.00">reset_password_sent_at :timestamp without time zone</text>
<text text-anchor="start" x="198.053" y="-189.3" font-family="Times,serif" font-size="14.00">remember_created_at :timestamp without time zone</text>
<text text-anchor="start" x="198.053" y="-175.3" font-family="Times,serif" font-size="14.00">sign_in_count :integer</text>
<text text-anchor="start" x="198.053" y="-161.3" font-family="Times,serif" font-size="14.00">current_sign_in_at :timestamp without time zone</text>
<text text-anchor="start" x="198.053" y="-147.3" font-family="Times,serif" font-size="14.00">last_sign_in_at :timestamp without time zone</text>
<text text-anchor="start" x="198.053" y="-133.3" font-family="Times,serif" font-size="14.00">current_sign_in_ip :inet</text>
<text text-anchor="start" x="198.053" y="-119.3" font-family="Times,serif" font-size="14.00">last_sign_in_ip :inet</text>
<text text-anchor="start" x="198.053" y="-105.3" font-family="Times,serif" font-size="14.00">created_at :timestamp without time zone</text>
<text text-anchor="start" x="198.053" y="-91.3" font-family="Times,serif" font-size="14.00">updated_at :timestamp without time zone</text>
<text text-anchor="start" x="198.053" y="-77.3" font-family="Times,serif" font-size="14.00">name :character varying</text>
<text text-anchor="start" x="198.053" y="-63.3" font-family="Times,serif" font-size="14.00">role :character varying</text>
<text text-anchor="start" x="198.053" y="-49.3" font-family="Times,serif" font-size="14.00">commune_id :integer</text>
<text text-anchor="start" x="198.053" y="-35.3" font-family="Times,serif" font-size="14.00">address :character varying</text>
<text text-anchor="start" x="198.053" y="-21.3" font-family="Times,serif" font-size="14.00">code :character varying</text>
<text text-anchor="start" x="198.053" y="-7.3" font-family="Times,serif" font-size="14.00">id :integer</text>
</g>
<!-- Commune&#45;&gt;User -->
<g id="edge1" class="edge"><title>Commune&#45;&gt;User</title>
<path fill="none" stroke="#6c582a" d="M349.688,-352.83C349.688,-339.041 349.688,-323.345 349.688,-306.927"/>
<ellipse fill="none" stroke="#6c582a" cx="349.688" cy="-357.272" rx="4" ry="4"/>
<polygon fill="#6c582a" stroke="#6c582a" points="349.688,-306.622 354.188,-296.622 349.688,-301.622 349.688,-296.622 349.688,-296.622 349.688,-296.622 349.688,-301.622 345.188,-296.622 349.688,-306.622 349.688,-306.622"/>
</g>
<!-- Product -->
<g id="node3" class="node"><title>Product</title>
<path fill="none" stroke="black" d="M503.825,-333.5C503.825,-333.5 727.55,-333.5 727.55,-333.5 733.55,-333.5 739.55,-339.5 739.55,-345.5 739.55,-345.5 739.55,-463.5 739.55,-463.5 739.55,-469.5 733.55,-475.5 727.55,-475.5 727.55,-475.5 503.825,-475.5 503.825,-475.5 497.825,-475.5 491.825,-469.5 491.825,-463.5 491.825,-463.5 491.825,-345.5 491.825,-345.5 491.825,-339.5 497.825,-333.5 503.825,-333.5"/>
<text text-anchor="middle" x="615.688" y="-460.3" font-family="Times,serif" font-size="14.00">Product</text>
<polyline fill="none" stroke="black" points="491.825,-453.5 739.55,-453.5 "/>
<text text-anchor="start" x="499.825" y="-438.3" font-family="Times,serif" font-size="14.00">photo :character varying</text>
<text text-anchor="start" x="499.825" y="-424.3" font-family="Times,serif" font-size="14.00">name :character varying</text>
<text text-anchor="start" x="499.825" y="-410.3" font-family="Times,serif" font-size="14.00">image :character varying</text>
<text text-anchor="start" x="499.825" y="-396.3" font-family="Times,serif" font-size="14.00">price :integer</text>
<text text-anchor="start" x="499.825" y="-382.3" font-family="Times,serif" font-size="14.00">details :text</text>
<text text-anchor="start" x="499.825" y="-368.3" font-family="Times,serif" font-size="14.00">created_at :timestamp without time zone</text>
<text text-anchor="start" x="499.825" y="-354.3" font-family="Times,serif" font-size="14.00">updated_at :timestamp without time zone</text>
<text text-anchor="start" x="499.825" y="-340.3" font-family="Times,serif" font-size="14.00">id :integer</text>
</g>
</g>
</svg>
