<?xml version="1.0" encoding="UTF-8" standalone="no"?>
<!DOCTYPE svg PUBLIC "-//W3C//DTD SVG 1.1//EN"
 "http://www.w3.org/Graphics/SVG/1.1/DTD/svg11.dtd">
<!-- Generated by graphviz version 2.38.0 (20140413.2041)
 -->
<!-- Title: models_diagram Pages: 1 -->
<svg width="817pt" height="249pt"
 viewBox="0.00 0.00 816.85 249.00" xmlns="http://www.w3.org/2000/svg" xmlns:xlink="http://www.w3.org/1999/xlink">
<g id="graph0" class="graph" transform="scale(1 1) rotate(0) translate(4 245)">
<title>models_diagram</title>
<polygon fill="none" stroke="none" points="-4,4 -4,-245 812.846,-245 812.846,4 -4,4"/>
<!-- _diagram_info -->
<g id="node1" class="node"><title>_diagram_info</title>
<text text-anchor="start" x="8" y="-142.6" font-family="Times,serif" font-size="13.00">Models diagram</text>
<text text-anchor="start" x="8" y="-129.6" font-family="Times,serif" font-size="13.00">Date: Nov 24 2016 &#45; 19:33</text>
<text text-anchor="start" x="8" y="-116.6" font-family="Times,serif" font-size="13.00">Migration version: 20161119000357</text>
<text text-anchor="start" x="8" y="-103.6" font-family="Times,serif" font-size="13.00">Generated by RailRoady 1.5.2</text>
<text text-anchor="start" x="8" y="-90.6" font-family="Times,serif" font-size="13.00">http://railroady.prestonlee.com</text>
</g>
<!-- Product -->
<g id="node2" class="node"><title>Product</title>
<path fill="none" stroke="black" d="M236.349,-56.5C236.349,-56.5 460.074,-56.5 460.074,-56.5 466.074,-56.5 472.074,-62.5 472.074,-68.5 472.074,-68.5 472.074,-172.5 472.074,-172.5 472.074,-178.5 466.074,-184.5 460.074,-184.5 460.074,-184.5 236.349,-184.5 236.349,-184.5 230.349,-184.5 224.349,-178.5 224.349,-172.5 224.349,-172.5 224.349,-68.5 224.349,-68.5 224.349,-62.5 230.349,-56.5 236.349,-56.5"/>
<text text-anchor="middle" x="348.212" y="-169.3" font-family="Times,serif" font-size="14.00">Product</text>
<polyline fill="none" stroke="black" points="224.349,-162.5 472.074,-162.5 "/>
<text text-anchor="start" x="232.349" y="-147.3" font-family="Times,serif" font-size="14.00">price :integer</text>
<text text-anchor="start" x="232.349" y="-133.3" font-family="Times,serif" font-size="14.00">name :character varying</text>
<text text-anchor="start" x="232.349" y="-119.3" font-family="Times,serif" font-size="14.00">image :character varying</text>
<text text-anchor="start" x="232.349" y="-105.3" font-family="Times,serif" font-size="14.00">id :integer</text>
<text text-anchor="start" x="232.349" y="-91.3" font-family="Times,serif" font-size="14.00">details :text</text>
<text text-anchor="start" x="232.349" y="-77.3" font-family="Times,serif" font-size="14.00">created_at :timestamp without time zone</text>
<text text-anchor="start" x="232.349" y="-63.3" font-family="Times,serif" font-size="14.00">updated_at :timestamp without time zone</text>
</g>
<!-- User -->
<g id="node3" class="node"><title>User</title>
<path fill="none" stroke="black" d="M501.577,-0.5C501.577,-0.5 796.846,-0.5 796.846,-0.5 802.846,-0.5 808.846,-6.5 808.846,-12.5 808.846,-12.5 808.846,-228.5 808.846,-228.5 808.846,-234.5 802.846,-240.5 796.846,-240.5 796.846,-240.5 501.577,-240.5 501.577,-240.5 495.577,-240.5 489.577,-234.5 489.577,-228.5 489.577,-228.5 489.577,-12.5 489.577,-12.5 489.577,-6.5 495.577,-0.5 501.577,-0.5"/>
<text text-anchor="middle" x="649.212" y="-225.3" font-family="Times,serif" font-size="14.00">User</text>
<polyline fill="none" stroke="black" points="489.577,-218.5 808.846,-218.5 "/>
<text text-anchor="start" x="497.577" y="-203.3" font-family="Times,serif" font-size="14.00">role :character varying</text>
<text text-anchor="start" x="497.577" y="-189.3" font-family="Times,serif" font-size="14.00">email :character varying</text>
<text text-anchor="start" x="497.577" y="-175.3" font-family="Times,serif" font-size="14.00">encrypted_password :character varying</text>
<text text-anchor="start" x="497.577" y="-161.3" font-family="Times,serif" font-size="14.00">reset_password_token :character varying</text>
<text text-anchor="start" x="497.577" y="-147.3" font-family="Times,serif" font-size="14.00">reset_password_sent_at :timestamp without time zone</text>
<text text-anchor="start" x="497.577" y="-133.3" font-family="Times,serif" font-size="14.00">remember_created_at :timestamp without time zone</text>
<text text-anchor="start" x="497.577" y="-119.3" font-family="Times,serif" font-size="14.00">sign_in_count :integer</text>
<text text-anchor="start" x="497.577" y="-105.3" font-family="Times,serif" font-size="14.00">current_sign_in_at :timestamp without time zone</text>
<text text-anchor="start" x="497.577" y="-91.3" font-family="Times,serif" font-size="14.00">last_sign_in_at :timestamp without time zone</text>
<text text-anchor="start" x="497.577" y="-77.3" font-family="Times,serif" font-size="14.00">current_sign_in_ip :inet</text>
<text text-anchor="start" x="497.577" y="-63.3" font-family="Times,serif" font-size="14.00">last_sign_in_ip :inet</text>
<text text-anchor="start" x="497.577" y="-49.3" font-family="Times,serif" font-size="14.00">created_at :timestamp without time zone</text>
<text text-anchor="start" x="497.577" y="-35.3" font-family="Times,serif" font-size="14.00">updated_at :timestamp without time zone</text>
<text text-anchor="start" x="497.577" y="-21.3" font-family="Times,serif" font-size="14.00">name :character varying</text>
<text text-anchor="start" x="497.577" y="-7.3" font-family="Times,serif" font-size="14.00">id :integer</text>
</g>
</g>
</svg>
