<?xml version="1.0" encoding="UTF-8" standalone="no"?>
<!DOCTYPE svg PUBLIC "-//W3C//DTD SVG 1.1//EN"
 "http://www.w3.org/Graphics/SVG/1.1/DTD/svg11.dtd">
<!-- Generated by graphviz version 2.38.0 (20140413.2041)
 -->
<!-- Title: models_diagram Pages: 1 -->
<svg width="746pt" height="470pt"
 viewBox="0.00 0.00 746.31 470.00" xmlns="http://www.w3.org/2000/svg" xmlns:xlink="http://www.w3.org/1999/xlink">
<g id="graph0" class="graph" transform="scale(1 1) rotate(0) translate(4 466)">
<title>models_diagram</title>
<polygon fill="none" stroke="none" points="-4,4 -4,-466 742.312,-466 742.312,4 -4,4"/>
<!-- _diagram_info -->
<g id="node1" class="node"><title>_diagram_info</title>
<text text-anchor="start" x="8" y="-419.6" font-family="Times,serif" font-size="13.00">Models diagram</text>
<text text-anchor="start" x="8" y="-406.6" font-family="Times,serif" font-size="13.00">Date: Nov 29 2016 &#45; 20:59</text>
<text text-anchor="start" x="8" y="-393.6" font-family="Times,serif" font-size="13.00">Migration version: 20161129233038</text>
<text text-anchor="start" x="8" y="-380.6" font-family="Times,serif" font-size="13.00">Generated by RailRoady 1.5.2</text>
<text text-anchor="start" x="8" y="-367.6" font-family="Times,serif" font-size="13.00">http://railroady.prestonlee.com</text>
</g>
<!-- Commune -->
<g id="node2" class="node"><title>Commune</title>
<path fill="none" stroke="black" d="M236.587,-354.5C236.587,-354.5 460.312,-354.5 460.312,-354.5 466.312,-354.5 472.312,-360.5 472.312,-366.5 472.312,-366.5 472.312,-428.5 472.312,-428.5 472.312,-434.5 466.312,-440.5 460.312,-440.5 460.312,-440.5 236.587,-440.5 236.587,-440.5 230.587,-440.5 224.587,-434.5 224.587,-428.5 224.587,-428.5 224.587,-366.5 224.587,-366.5 224.587,-360.5 230.587,-354.5 236.587,-354.5"/>
<text text-anchor="middle" x="348.45" y="-425.3" font-family="Times,serif" font-size="14.00">Commune</text>
<polyline fill="none" stroke="black" points="224.587,-418.5 472.312,-418.5 "/>
<text text-anchor="start" x="232.587" y="-403.3" font-family="Times,serif" font-size="14.00">id :integer</text>
<text text-anchor="start" x="232.587" y="-389.3" font-family="Times,serif" font-size="14.00">name :character varying</text>
<text text-anchor="start" x="232.587" y="-375.3" font-family="Times,serif" font-size="14.00">created_at :timestamp without time zone</text>
<text text-anchor="start" x="232.587" y="-361.3" font-family="Times,serif" font-size="14.00">updated_at :timestamp without time zone</text>
</g>
<!-- User -->
<g id="node4" class="node"><title>User</title>
<path fill="none" stroke="black" d="M200.815,-0.5C200.815,-0.5 496.084,-0.5 496.084,-0.5 502.084,-0.5 508.084,-6.5 508.084,-12.5 508.084,-12.5 508.084,-284.5 508.084,-284.5 508.084,-290.5 502.084,-296.5 496.084,-296.5 496.084,-296.5 200.815,-296.5 200.815,-296.5 194.815,-296.5 188.815,-290.5 188.815,-284.5 188.815,-284.5 188.815,-12.5 188.815,-12.5 188.815,-6.5 194.815,-0.5 200.815,-0.5"/>
<text text-anchor="middle" x="348.45" y="-281.3" font-family="Times,serif" font-size="14.00">User</text>
<polyline fill="none" stroke="black" points="188.815,-274.5 508.084,-274.5 "/>
<text text-anchor="start" x="196.815" y="-259.3" font-family="Times,serif" font-size="14.00">phone :integer</text>
<text text-anchor="start" x="196.815" y="-245.3" font-family="Times,serif" font-size="14.00">email :character varying</text>
<text text-anchor="start" x="196.815" y="-231.3" font-family="Times,serif" font-size="14.00">encrypted_password :character varying</text>
<text text-anchor="start" x="196.815" y="-217.3" font-family="Times,serif" font-size="14.00">reset_password_token :character varying</text>
<text text-anchor="start" x="196.815" y="-203.3" font-family="Times,serif" font-size="14.00">reset_password_sent_at :timestamp without time zone</text>
<text text-anchor="start" x="196.815" y="-189.3" font-family="Times,serif" font-size="14.00">remember_created_at :timestamp without time zone</text>
<text text-anchor="start" x="196.815" y="-175.3" font-family="Times,serif" font-size="14.00">sign_in_count :integer</text>
<text text-anchor="start" x="196.815" y="-161.3" font-family="Times,serif" font-size="14.00">current_sign_in_at :timestamp without time zone</text>
<text text-anchor="start" x="196.815" y="-147.3" font-family="Times,serif" font-size="14.00">last_sign_in_at :timestamp without time zone</text>
<text text-anchor="start" x="196.815" y="-133.3" font-family="Times,serif" font-size="14.00">current_sign_in_ip :inet</text>
<text text-anchor="start" x="196.815" y="-119.3" font-family="Times,serif" font-size="14.00">last_sign_in_ip :inet</text>
<text text-anchor="start" x="196.815" y="-105.3" font-family="Times,serif" font-size="14.00">created_at :timestamp without time zone</text>
<text text-anchor="start" x="196.815" y="-91.3" font-family="Times,serif" font-size="14.00">updated_at :timestamp without time zone</text>
<text text-anchor="start" x="196.815" y="-77.3" font-family="Times,serif" font-size="14.00">name :character varying</text>
<text text-anchor="start" x="196.815" y="-63.3" font-family="Times,serif" font-size="14.00">role :character varying</text>
<text text-anchor="start" x="196.815" y="-49.3" font-family="Times,serif" font-size="14.00">commune_id :integer</text>
<text text-anchor="start" x="196.815" y="-35.3" font-family="Times,serif" font-size="14.00">address :character varying</text>
<text text-anchor="start" x="196.815" y="-21.3" font-family="Times,serif" font-size="14.00">code :character varying</text>
<text text-anchor="start" x="196.815" y="-7.3" font-family="Times,serif" font-size="14.00">id :integer</text>
</g>
<!-- Commune&#45;&gt;User -->
<g id="edge1" class="edge"><title>Commune&#45;&gt;User</title>
<path fill="none" stroke="#576e5b" d="M348.45,-346.288C348.45,-334.309 348.45,-320.889 348.45,-306.836"/>
<ellipse fill="none" stroke="#576e5b" cx="348.45" cy="-350.32" rx="4" ry="4"/>
<polygon fill="#576e5b" stroke="#576e5b" points="348.45,-306.502 352.95,-296.502 348.45,-301.502 348.45,-296.502 348.45,-296.502 348.45,-296.502 348.45,-301.502 343.95,-296.502 348.45,-306.502 348.45,-306.502"/>
</g>
<!-- Product -->
<g id="node3" class="node"><title>Product</title>
<path fill="none" stroke="black" d="M502.587,-333.5C502.587,-333.5 726.312,-333.5 726.312,-333.5 732.312,-333.5 738.312,-339.5 738.312,-345.5 738.312,-345.5 738.312,-449.5 738.312,-449.5 738.312,-455.5 732.312,-461.5 726.312,-461.5 726.312,-461.5 502.587,-461.5 502.587,-461.5 496.587,-461.5 490.587,-455.5 490.587,-449.5 490.587,-449.5 490.587,-345.5 490.587,-345.5 490.587,-339.5 496.587,-333.5 502.587,-333.5"/>
<text text-anchor="middle" x="614.45" y="-446.3" font-family="Times,serif" font-size="14.00">Product</text>
<polyline fill="none" stroke="black" points="490.587,-439.5 738.312,-439.5 "/>
<text text-anchor="start" x="498.587" y="-424.3" font-family="Times,serif" font-size="14.00">price :integer</text>
<text text-anchor="start" x="498.587" y="-410.3" font-family="Times,serif" font-size="14.00">name :character varying</text>
<text text-anchor="start" x="498.587" y="-396.3" font-family="Times,serif" font-size="14.00">image :character varying</text>
<text text-anchor="start" x="498.587" y="-382.3" font-family="Times,serif" font-size="14.00">id :integer</text>
<text text-anchor="start" x="498.587" y="-368.3" font-family="Times,serif" font-size="14.00">details :text</text>
<text text-anchor="start" x="498.587" y="-354.3" font-family="Times,serif" font-size="14.00">created_at :timestamp without time zone</text>
<text text-anchor="start" x="498.587" y="-340.3" font-family="Times,serif" font-size="14.00">updated_at :timestamp without time zone</text>
</g>
</g>
</svg>
