<?xml version="1.0" encoding="UTF-8" standalone="no"?>
<!DOCTYPE svg PUBLIC "-//W3C//DTD SVG 1.1//EN"
 "http://www.w3.org/Graphics/SVG/1.1/DTD/svg11.dtd">
<!-- Generated by graphviz version 2.38.0 (20140413.2041)
 -->
<!-- Title: models_diagram Pages: 1 -->
<svg width="546pt" height="153pt"
 viewBox="0.00 0.00 546.07 153.00" xmlns="http://www.w3.org/2000/svg" xmlns:xlink="http://www.w3.org/1999/xlink">
<g id="graph0" class="graph" transform="scale(1 1) rotate(0) translate(4 149)">
<title>models_diagram</title>
<polygon fill="none" stroke="none" points="-4,4 -4,-149 542.067,-149 542.067,4 -4,4"/>
<!-- _diagram_info -->
<g id="node1" class="node"><title>_diagram_info</title>
<text text-anchor="start" x="8" y="-130.6" font-family="Times,serif" font-size="13.00">Models diagram</text>
<text text-anchor="start" x="8" y="-117.6" font-family="Times,serif" font-size="13.00">Date: Nov 29 2016 &#45; 21:00</text>
<text text-anchor="start" x="8" y="-104.6" font-family="Times,serif" font-size="13.00">Migration version: 20161129233038</text>
<text text-anchor="start" x="8" y="-91.6" font-family="Times,serif" font-size="13.00">Generated by RailRoady 1.5.2</text>
<text text-anchor="start" x="8" y="-78.6" font-family="Times,serif" font-size="13.00">http://railroady.prestonlee.com</text>
</g>
<!-- Commune -->
<g id="node2" class="node"><title>Commune</title>
<ellipse fill="none" stroke="black" cx="271.45" cy="-108.5" rx="46.9064" ry="18"/>
<text text-anchor="middle" x="271.45" y="-104.3" font-family="Times,serif" font-size="14.00">Commune</text>
</g>
<!-- User -->
<g id="node5" class="node"><title>User</title>
<ellipse fill="none" stroke="black" cx="271.45" cy="-18" rx="27" ry="18"/>
<text text-anchor="middle" x="271.45" y="-13.8" font-family="Times,serif" font-size="14.00">User</text>
</g>
<!-- Commune&#45;&gt;User -->
<g id="edge1" class="edge"><title>Commune&#45;&gt;User</title>
<path fill="none" stroke="#9dce82" d="M271.45,-82.189C271.45,-70.9711 271.45,-57.7517 271.45,-46.3113"/>
<ellipse fill="none" stroke="#9dce82" cx="271.45" cy="-86.4363" rx="4" ry="4"/>
<polygon fill="#9dce82" stroke="#9dce82" points="271.45,-46.0113 275.95,-36.0113 271.45,-41.0113 271.45,-36.0113 271.45,-36.0113 271.45,-36.0113 271.45,-41.0113 266.95,-36.0113 271.45,-46.0113 271.45,-46.0113"/>
</g>
<!-- Localization -->
<g id="node3" class="node"><title>Localization</title>
<ellipse fill="none" stroke="black" cx="390.45" cy="-108.5" rx="54.1058" ry="18"/>
<text text-anchor="middle" x="390.45" y="-104.3" font-family="Times,serif" font-size="14.00">Localization</text>
</g>
<!-- Product -->
<g id="node4" class="node"><title>Product</title>
<ellipse fill="none" stroke="black" cx="500.45" cy="-108.5" rx="37.7352" ry="18"/>
<text text-anchor="middle" x="500.45" y="-104.3" font-family="Times,serif" font-size="14.00">Product</text>
</g>
</g>
</svg>
